<?xml version="1.0" encoding="UTF-8"?>
<svg id="Capa_1" data-name="Capa 1" xmlns="http://www.w3.org/2000/svg" viewBox="0 0 24 24">
  <defs>
    <style>
      .cls-1 {
        fill: #48752c;
        stroke: #48752c;
        stroke-miterlimit: 10;
      }

      .cls-2 {
        fill: #fff;
      }
    </style>
  </defs>
  <path class="cls-1" d="M12.85,3.34l1.88,5.79h6.09c.86,0,1.22,1.1.52,1.61l-4.93,3.58,1.88,5.79c.27.82-.67,1.5-1.37,1l-4.93-3.58-4.93,3.58c-.7.51-1.64-.18-1.37-1l1.88-5.79-4.93-3.58c-.7-.51-.34-1.61.52-1.61h6.09l1.88-5.79c.27-.82,1.43-.82,1.7,0h.02Z"/>
  <path class="cls-2" d="M19.95,9.37h-5.48l-1.69-5.29h-.02c-.12-.37-.44-.56-.77-.56v13.54h0s4.44,3.26,4.44,3.26c.63.46,1.48-.16,1.23-.91l-1.69-5.29,4.44-3.27c.63-.47.31-1.47-.47-1.47Z"/>
</svg>